<svg data-v-79b32762="" width="20" height="20" viewBox="0 0 20 20" fill="currentColor" xmlns="http://www.w3.org/2000/svg"><path data-v-79b32762="" d="M12.2513 3.58331L18.0846 9.41665C18.418 9.74998 18.418 10.25 18.0846 10.5833L12.2513 16.4166C11.918 16.75 11.418 16.75 11.0846 16.4166C10.7513 16.0833 10.7513 15.5833 11.0846 15.25L15.5013 10.8333H2.5013C2.0013 10.8333 1.66797 10.5 1.66797 9.99998C1.66797 9.49998 2.0013 9.16665 2.5013 9.16665H15.5013L11.0846 4.74998C10.918 4.58331 10.8346 4.41665 10.8346 4.16665C10.8346 3.91665 10.918 3.74998 11.0846 3.58331C11.418 3.24998 11.918 3.24998 12.2513 3.58331Z"></path></svg>
