<svg data-v-79b32762="" width="20" height="20" viewBox="0 0 20 20" fill="currentColor" xmlns="http://www.w3.org/2000/svg"><path data-v-79b32762="" d="M7.7513 3.58331L1.91797 9.41665C1.58464 9.74998 1.58464 10.25 1.91797 10.5833L7.7513 16.4166C8.08464 16.75 8.58464 16.75 8.91797 16.4166C9.2513 16.0833 9.2513 15.5833 8.91797 15.25L4.5013 10.8333H17.5013C18.0013 10.8333 18.3346 10.5 18.3346 9.99998C18.3346 9.49998 18.0013 9.16665 17.5013 9.16665H4.5013L8.91797 4.74998C9.08464 4.58331 9.16797 4.41665 9.16797 4.16665C9.16797 3.91665 9.08464 3.74998 8.91797 3.58331C8.58464 3.24998 8.08464 3.24998 7.7513 3.58331Z"></path></svg>
